<svg width="5" height="5" viewBox="0 0 5 5" fill="none" xmlns="http://www.w3.org/2000/svg">
<g clip-path="url(#clip0_2004_13583)">
<path d="M4.61953 -13.556V-14.856H3.31953V-13.556H4.61953ZM15.0195 -13.556V-14.856H13.7195V-13.556H15.0195ZM9.81953 -13.556V-14.856H8.51953V-13.556H9.81953ZM12.4195 -10.956V-12.256H11.1195V-10.956H12.4195ZM7.21953 -10.956V-12.256H5.91953V-10.956H7.21953ZM2.01953 -10.956V-12.256H0.719531V-10.956H2.01953ZM9.81953 -8.356V-9.656H8.51953V-8.356H9.81953ZM15.0195 -8.356V-9.656H13.7195V-8.356H15.0195ZM4.61953 -8.356V-9.656H3.31953V-8.356H4.61953ZM7.21953 -5.756V-7.056H5.91953V-5.756H7.21953ZM2.01953 -5.756V-7.056H0.719531V-5.756H2.01953ZM12.4195 -5.756V-7.056H11.1195V-5.756H12.4195ZM4.61953 -3.156V-4.456H3.31953V-3.156H4.61953ZM15.0195 -3.156V-4.456H13.7195V-3.156H15.0195ZM9.81953 -3.156V-4.456H8.51953V-3.156H9.81953ZM2.01953 -0.556V-1.856H0.719531V-0.556H2.01953ZM12.4195 -0.556V-1.856H11.1195V-0.556H12.4195ZM7.21953 -0.556V-1.856H5.91953V-0.556H7.21953ZM9.81953 2.044V0.744H8.51953V2.044H9.81953ZM4.61953 2.044V0.744H3.31953V2.044H4.61953ZM15.0195 2.044V0.744H13.7195V2.044H15.0195ZM7.21953 4.644V3.344H5.91953V4.644H7.21953ZM2.01953 4.644V3.344H0.719531V4.644H2.01953ZM12.4195 4.644V3.344H11.1195V4.644H12.4195ZM9.81953 7.244V5.944H8.51953V7.244H9.81953ZM15.0195 7.244V5.944H13.7195V7.244H15.0195ZM4.61953 7.244V5.944H3.31953V7.244H4.61953ZM2.01953 9.844V8.544H0.719531V9.844H2.01953ZM7.21953 9.844V8.544H5.91953V9.844H7.21953ZM12.4195 9.844V8.544H11.1195V9.844H12.4195ZM4.61953 12.444V11.144H3.31953V12.444H4.61953ZM9.81953 12.444V11.144H8.51953V12.444H9.81953ZM15.0195 12.444V11.144H13.7195V12.444H15.0195ZM2.01953 15.044V13.744H0.719531V15.044H2.01953ZM7.21953 15.044V13.744H5.91953V15.044H7.21953ZM12.4195 15.044V13.744H11.1195V15.044H12.4195Z" fill="#408075"/>
</g>
<defs>
<clipPath id="clip0_2004_13583">
<rect width="5" height="5" fill="white"/>
</clipPath>
</defs>
</svg>
