<?xml version="1.0" encoding="UTF-8"?>
<svg width="100pt" height="100pt" version="1.1" viewBox="0 0 100 100" xmlns="http://www.w3.org/2000/svg">
 <path d="m19 44v26c0 6.6289 5.3711 12 12 12h38c6.6289 0 12-5.3711 12-12v-26c0-6.6289-5.3711-12-12-12h-11.129l6.1992-7.4414c1.4141-1.6953 1.1836-4.2188-0.51562-5.6328-1.6992-1.4141-4.2227-1.1836-5.6328 0.51562l-7.9219 9.5586-7.9297-9.5117c-1.4141-1.6953-3.9375-1.9258-5.6367-0.51172-1.6953 1.4141-1.9258 3.9336-0.51172 5.6328l6.207 7.3906h-11.129c-6.6289 0-12 5.3711-12 12zm54 0v26c0 1.0625-0.42188 2.0781-1.1719 2.8281s-1.7656 1.1719-2.8281 1.1719h-38c-2.2109 0-4-1.7891-4-4v-26c0-2.2109 1.7891-4 4-4h38c1.0625 0 2.0781 0.42188 2.8281 1.1719s1.1719 1.7656 1.1719 2.8281z"/>
</svg>
