<?xml version="1.0" encoding="UTF-8"?>
<svg width="100pt" height="100pt" version="1.1" viewBox="0 0 100 100" xmlns="http://www.w3.org/2000/svg">
 <g>
  <path d="m50.238 1.6367c-26.785 0-48.496 21.715-48.496 48.496 0 26.785 21.711 48.496 48.496 48.496 26.785 0 48.496-21.711 48.496-48.496 0-26.781-21.711-48.496-48.496-48.496zm24.562 19.82c7.2188 0 13.074 5.8516 13.074 13.074 0 7.2188-5.8516 13.074-13.074 13.074-7.2188 0-13.074-5.8516-13.074-13.074 0.003907-7.2188 5.8555-13.074 13.074-13.074zm-65.152 28.887c0-7.2188 5.8516-13.074 13.074-13.074 7.2188 0 13.074 5.8516 13.074 13.074 0 7.2188-5.8516 13.074-13.074 13.074-7.2188 0-13.074-5.8555-13.074-13.074zm31.84 40.695c-7.2188 0-13.074-5.8516-13.074-13.074 0-7.2188 5.8516-13.074 13.074-13.074 7.2188 0 13.074 5.8516 13.074 13.074 0 7.2188-5.8555 13.074-13.074 13.074zm8.75-36.477c-2.4453 0-4.4297-1.9805-4.4297-4.4297 0-2.4453 1.9805-4.4297 4.4297-4.4297 2.4453 0 4.4297 1.9805 4.4297 4.4297 0 2.4453-1.9844 4.4297-4.4297 4.4297zm-7.6953-18.555c-7.2188 0-13.074-5.8516-13.074-13.074 0-7.2188 5.8516-13.074 13.074-13.074 7.2188 0 13.074 5.8516 13.074 13.074 0 7.2188-5.8555 13.074-13.074 13.074zm31.84 44.488c-7.2188 0-13.074-5.8516-13.074-13.074 0-7.2188 5.8516-13.074 13.074-13.074 7.2188 0 13.074 5.8516 13.074 13.074-0.003906 7.2227-5.8555 13.074-13.074 13.074z"/>
  <path d="m53.312 98.605h9.5117 18.777 13.395 0.79297c1.5977 0 2.9414-1.3047 2.9531-2.9102 0.011718-1.5898-1.3125-2.9531-2.9102-2.9531h-9.5117-18.777-13.395-0.79297c-1.5977 0-2.9414 1.3047-2.9531 2.9102-0.007813 1.5898 1.3125 2.9531 2.9102 2.9531z"/>
 </g>
</svg>
